<mxfile host="65bd71144e">
    <diagram id="ixiCC0gcYEpB4aZluU01" name="Page-1">
        <mxGraphModel dx="1381" dy="1505" grid="1" gridSize="10" guides="1" tooltips="1" connect="1" arrows="1" fold="1" page="1" pageScale="1" pageWidth="850" pageHeight="1100" background="#ffffff" math="0" shadow="0">
            <root>
                <mxCell id="0"/>
                <mxCell id="1" parent="0"/>
                <mxCell id="82" style="edgeStyle=none;shape=connector;curved=1;rounded=1;html=1;labelBackgroundColor=default;strokeColor=#000000;strokeWidth=4;fontFamily=Helvetica;fontSize=16;fontColor=#000000;endArrow=classic;endSize=10;" parent="1" source="2" edge="1">
                    <mxGeometry relative="1" as="geometry">
                        <mxPoint x="770" y="150" as="targetPoint"/>
                    </mxGeometry>
                </mxCell>
                <mxCell id="2" value="POSTGRES" style="shape=datastore;whiteSpace=wrap;html=1;fillColor=#0050ef;fontColor=#000000;strokeColor=#000000;fontSize=16;fontStyle=1" parent="1" vertex="1">
                    <mxGeometry x="920" y="280" width="120" height="120" as="geometry"/>
                </mxCell>
                <mxCell id="91" style="edgeStyle=none;shape=connector;curved=1;rounded=1;html=1;labelBackgroundColor=default;strokeColor=#000000;strokeWidth=4;fontFamily=Helvetica;fontSize=16;fontColor=#000000;endArrow=classic;endSize=10;" parent="1" edge="1">
                    <mxGeometry relative="1" as="geometry">
                        <mxPoint x="1020.0000000000005" y="580" as="targetPoint"/>
                        <mxPoint x="900" y="610" as="sourcePoint"/>
                    </mxGeometry>
                </mxCell>
                <mxCell id="95" style="edgeStyle=none;shape=connector;curved=1;rounded=1;html=1;labelBackgroundColor=default;strokeColor=#000000;strokeWidth=4;fontFamily=Helvetica;fontSize=16;fontColor=#000000;endArrow=classic;endSize=10;" parent="1" edge="1">
                    <mxGeometry relative="1" as="geometry">
                        <mxPoint x="930" y="410" as="targetPoint"/>
                        <mxPoint x="760" y="540" as="sourcePoint"/>
                    </mxGeometry>
                </mxCell>
                <mxCell id="3" value="SERVICE1" style="swimlane;movable=1;resizable=1;rotatable=1;deletable=1;editable=1;connectable=1;fillColor=#fa6800;fontColor=#000000;strokeColor=#000000;glass=0;fontSize=16;fontStyle=1" parent="1" vertex="1">
                    <mxGeometry x="680" y="560" width="200" height="200" as="geometry"/>
                </mxCell>
                <mxCell id="4" value="UPDATE PRODUCTS" style="text;html=1;align=center;verticalAlign=middle;resizable=1;points=[];autosize=1;strokeColor=none;fillColor=none;movable=1;rotatable=1;deletable=1;editable=1;connectable=1;fontStyle=1;fontSize=16;fontColor=#000000;" parent="3" vertex="1">
                    <mxGeometry x="10" y="95" width="180" height="30" as="geometry"/>
                </mxCell>
                <mxCell id="81" style="edgeStyle=none;shape=connector;curved=1;rounded=1;html=1;labelBackgroundColor=default;strokeColor=#000000;strokeWidth=4;fontFamily=Helvetica;fontSize=16;fontColor=#000000;endArrow=classic;endSize=10;" parent="1" edge="1">
                    <mxGeometry relative="1" as="geometry">
                        <mxPoint x="970" y="270" as="targetPoint"/>
                        <mxPoint x="830" y="150" as="sourcePoint"/>
                    </mxGeometry>
                </mxCell>
                <mxCell id="83" style="edgeStyle=none;shape=connector;curved=1;rounded=1;html=1;labelBackgroundColor=default;strokeColor=#000000;strokeWidth=4;fontFamily=Helvetica;fontSize=16;fontColor=#000000;endArrow=classic;endSize=10;" parent="1" edge="1">
                    <mxGeometry relative="1" as="geometry">
                        <mxPoint x="1130" y="40" as="targetPoint"/>
                        <mxPoint x="910" y="40" as="sourcePoint"/>
                    </mxGeometry>
                </mxCell>
                <mxCell id="90" style="edgeStyle=none;shape=connector;curved=1;rounded=1;html=1;labelBackgroundColor=default;strokeColor=#000000;strokeWidth=4;fontFamily=Helvetica;fontSize=16;fontColor=#000000;endArrow=classic;endSize=10;" parent="1" edge="1">
                    <mxGeometry relative="1" as="geometry">
                        <mxPoint x="500" y="60.00333333333349" as="targetPoint"/>
                        <mxPoint x="660" y="60.17" as="sourcePoint"/>
                    </mxGeometry>
                </mxCell>
                <mxCell id="5" value="SERVICE 2" style="swimlane;fillColor=#fa6800;strokeColor=#000000;fontColor=#000000;fontSize=16;fontStyle=1" parent="1" vertex="1">
                    <mxGeometry x="680" y="-60" width="200" height="200" as="geometry"/>
                </mxCell>
                <mxCell id="6" value="WEBHOOK" style="text;html=1;align=center;verticalAlign=middle;resizable=0;points=[];autosize=1;strokeColor=none;fillColor=none;fontColor=#000000;fontSize=16;fontStyle=1" parent="5" vertex="1">
                    <mxGeometry x="45" y="95" width="110" height="30" as="geometry"/>
                </mxCell>
                <mxCell id="92" style="edgeStyle=none;shape=connector;curved=1;rounded=1;html=1;labelBackgroundColor=default;strokeColor=#000000;strokeWidth=4;fontFamily=Helvetica;fontSize=16;fontColor=#000000;endArrow=classic;endSize=10;" parent="1" edge="1">
                    <mxGeometry relative="1" as="geometry">
                        <mxPoint x="890" y="635" as="targetPoint"/>
                        <mxPoint x="1010" y="605" as="sourcePoint"/>
                    </mxGeometry>
                </mxCell>
                <mxCell id="12" value="DIDIOS.MENUDINO.COM.BR" style="swimlane;movable=1;resizable=1;rotatable=1;deletable=1;editable=1;connectable=1;fillColor=#60a917;fontColor=#000000;strokeColor=#000000;gradientColor=none;swimlaneFillColor=none;shadow=0;fontSize=16;fontStyle=1" parent="1" vertex="1">
                    <mxGeometry x="1030" y="520" width="270" height="200" as="geometry"/>
                </mxCell>
                <mxCell id="13" value="CATALOGO DIDIOS" style="text;html=1;align=center;verticalAlign=middle;resizable=1;points=[];autosize=1;strokeColor=none;fillColor=none;movable=1;rotatable=1;deletable=1;editable=1;connectable=1;fontColor=#000000;fontSize=16;fontStyle=1" parent="12" vertex="1">
                    <mxGeometry x="50" y="95" width="170" height="30" as="geometry"/>
                </mxCell>
                <mxCell id="14" value="POTATOS.MENUDINO.COM.BR" style="swimlane;movable=1;resizable=1;rotatable=1;deletable=1;editable=1;connectable=1;fillColor=#60a917;fontColor=#000000;strokeColor=#000000;rounded=0;fontSize=16;fontStyle=1" parent="1" vertex="1">
                    <mxGeometry x="1030" y="780" width="290" height="200" as="geometry"/>
                </mxCell>
                <mxCell id="15" value="CATALOGO POTATOS" style="text;html=1;align=center;verticalAlign=middle;resizable=1;points=[];autosize=1;strokeColor=none;fillColor=none;movable=1;rotatable=1;deletable=1;editable=1;connectable=1;fontSize=16;fontStyle=1;fontColor=#000000;" parent="14" vertex="1">
                    <mxGeometry x="50" y="95" width="190" height="30" as="geometry"/>
                </mxCell>
                <mxCell id="89" style="edgeStyle=none;shape=connector;curved=1;rounded=1;html=1;labelBackgroundColor=default;strokeColor=#000000;strokeWidth=4;fontFamily=Helvetica;fontSize=16;fontColor=#000000;endArrow=classic;endSize=10;" parent="1" edge="1">
                    <mxGeometry relative="1" as="geometry">
                        <mxPoint x="660" y="40" as="targetPoint"/>
                        <mxPoint x="510" y="40" as="sourcePoint"/>
                    </mxGeometry>
                </mxCell>
                <mxCell id="28" value="SKILL" style="swimlane;fillColor=#1ba1e2;strokeColor=#000000;fontColor=#000000;fontSize=16;fontStyle=1" parent="1" vertex="1">
                    <mxGeometry x="280" y="-60" width="200" height="200" as="geometry"/>
                </mxCell>
                <mxCell id="29" value="PRATO RÁPIDO" style="text;html=1;align=center;verticalAlign=middle;resizable=0;points=[];autosize=1;strokeColor=none;fillColor=none;fontColor=#000000;fontSize=16;fontStyle=1" parent="28" vertex="1">
                    <mxGeometry x="30" y="95" width="140" height="30" as="geometry"/>
                </mxCell>
                <mxCell id="77" style="edgeStyle=none;shape=connector;curved=1;rounded=1;html=1;labelBackgroundColor=default;strokeColor=#000000;strokeWidth=4;fontFamily=Helvetica;fontSize=16;fontColor=#000000;endArrow=classic;endSize=10;" parent="1" edge="1">
                    <mxGeometry relative="1" as="geometry">
                        <mxPoint x="260" y="25" as="targetPoint"/>
                        <mxPoint x="90" y="25" as="sourcePoint"/>
                    </mxGeometry>
                </mxCell>
                <mxCell id="87" style="edgeStyle=none;shape=connector;curved=1;rounded=1;html=1;labelBackgroundColor=default;strokeColor=#000000;strokeWidth=4;fontFamily=Helvetica;fontSize=16;fontColor=#000000;endArrow=classic;endSize=10;" parent="1" edge="1">
                    <mxGeometry relative="1" as="geometry">
                        <mxPoint x="-100" y="-140.00000000000023" as="targetPoint"/>
                        <mxPoint x="-10" y="-20" as="sourcePoint"/>
                    </mxGeometry>
                </mxCell>
                <mxCell id="32" value="" style="shape=cylinder3;whiteSpace=wrap;html=1;boundedLbl=1;backgroundOutline=1;size=15;rounded=0;shadow=0;glass=0;sketch=0;strokeWidth=4;fontFamily=Helvetica;fontSize=16;fillColor=#d80073;fontColor=#000000;strokeColor=#000000;fontStyle=1" parent="1" vertex="1">
                    <mxGeometry x="-30" width="100" height="50" as="geometry"/>
                </mxCell>
                <mxCell id="75" style="edgeStyle=none;shape=connector;curved=1;rounded=1;html=1;labelBackgroundColor=default;strokeColor=#000000;strokeWidth=4;fontFamily=Helvetica;fontSize=16;fontColor=#000000;endArrow=classic;endSize=10;" parent="1" source="35" target="37" edge="1">
                    <mxGeometry relative="1" as="geometry"/>
                </mxCell>
                <mxCell id="35" value="Actor" style="shape=umlActor;verticalLabelPosition=bottom;verticalAlign=top;html=1;outlineConnect=0;rounded=0;shadow=0;glass=0;sketch=0;strokeWidth=4;fontFamily=Helvetica;fontSize=16;fontColor=#000000;gradientColor=none;fillColor=#000000;strokeColor=#000000;fontStyle=1" parent="1" vertex="1">
                    <mxGeometry x="-730" y="-30" width="70" height="110" as="geometry"/>
                </mxCell>
                <mxCell id="76" style="edgeStyle=none;shape=connector;curved=1;rounded=1;html=1;labelBackgroundColor=default;strokeColor=#000000;strokeWidth=4;fontFamily=Helvetica;fontSize=16;fontColor=#000000;endArrow=classic;endSize=10;" parent="1" source="37" edge="1">
                    <mxGeometry relative="1" as="geometry">
                        <mxPoint x="-40" y="30" as="targetPoint"/>
                    </mxGeometry>
                </mxCell>
                <mxCell id="37" value="ALEXA, PRATO RÁPIDO" style="ellipse;shape=cloud;whiteSpace=wrap;html=1;rounded=0;shadow=0;glass=0;sketch=0;strokeWidth=4;fontFamily=Helvetica;fontSize=16;fontColor=#000000;gradientColor=none;strokeColor=#000000;fontStyle=1;fillColor=#FFFFFF;" parent="1" vertex="1">
                    <mxGeometry x="-510" y="-45" width="320" height="140" as="geometry"/>
                </mxCell>
                <mxCell id="84" style="edgeStyle=none;shape=connector;curved=1;rounded=1;html=1;labelBackgroundColor=default;strokeColor=#000000;strokeWidth=4;fontFamily=Helvetica;fontSize=16;fontColor=#000000;endArrow=classic;endSize=10;" parent="1" edge="1">
                    <mxGeometry relative="1" as="geometry">
                        <mxPoint x="900" y="59.999411764705854" as="targetPoint"/>
                        <mxPoint x="1120" y="60.47" as="sourcePoint"/>
                    </mxGeometry>
                </mxCell>
                <mxCell id="50" value="GOOGLE" style="swimlane;fillColor=#fa6800;strokeColor=#000000;fontColor=#000000;fontSize=16;fontStyle=1" parent="1" vertex="1">
                    <mxGeometry x="1140" y="-60" width="200" height="200" as="geometry"/>
                </mxCell>
                <mxCell id="51" value="GEMINI" style="text;html=1;align=center;verticalAlign=middle;resizable=0;points=[];autosize=1;strokeColor=none;fillColor=none;fontColor=#000000;fontSize=16;fontStyle=1" parent="50" vertex="1">
                    <mxGeometry x="60" y="95" width="80" height="30" as="geometry"/>
                </mxCell>
                <mxCell id="85" style="edgeStyle=none;shape=connector;curved=1;rounded=1;html=1;labelBackgroundColor=default;strokeColor=#000000;strokeWidth=4;fontFamily=Helvetica;fontSize=16;fontColor=#000000;endArrow=classic;endSize=10;" parent="1" edge="1">
                    <mxGeometry relative="1" as="geometry">
                        <mxPoint x="80" y="50" as="targetPoint"/>
                        <mxPoint x="240" y="50" as="sourcePoint"/>
                    </mxGeometry>
                </mxCell>
                <mxCell id="86" value="RESPOSTA" style="ellipse;shape=cloud;whiteSpace=wrap;html=1;rounded=0;shadow=0;glass=0;sketch=0;strokeWidth=4;fontFamily=Helvetica;fontSize=16;fontColor=#000000;gradientColor=none;strokeColor=#000000;fontStyle=1;fillColor=#FFFFFF;" parent="1" vertex="1">
                    <mxGeometry x="-310" y="-290" width="320" height="140" as="geometry"/>
                </mxCell>
                <mxCell id="93" style="edgeStyle=none;shape=connector;curved=1;rounded=1;html=1;labelBackgroundColor=default;strokeColor=#000000;strokeWidth=4;fontFamily=Helvetica;fontSize=16;fontColor=#000000;endArrow=classic;endSize=10;" parent="1" edge="1">
                    <mxGeometry relative="1" as="geometry">
                        <mxPoint x="1020" y="840" as="targetPoint"/>
                        <mxPoint x="890" y="735" as="sourcePoint"/>
                    </mxGeometry>
                </mxCell>
                <mxCell id="94" style="edgeStyle=none;shape=connector;curved=1;rounded=1;html=1;labelBackgroundColor=default;strokeColor=#000000;strokeWidth=4;fontFamily=Helvetica;fontSize=16;fontColor=#000000;endArrow=classic;endSize=10;" parent="1" edge="1">
                    <mxGeometry relative="1" as="geometry">
                        <mxPoint x="890" y="760" as="targetPoint"/>
                        <mxPoint x="1020" y="860" as="sourcePoint"/>
                    </mxGeometry>
                </mxCell>
                <mxCell id="97" style="edgeStyle=none;shape=connector;curved=1;rounded=1;html=1;entryX=0.5;entryY=1;entryDx=0;entryDy=0;labelBackgroundColor=default;strokeColor=#000000;strokeWidth=4;fontFamily=Helvetica;fontSize=16;fontColor=#000000;endArrow=classic;endSize=10;" parent="1" source="3" target="3" edge="1">
                    <mxGeometry relative="1" as="geometry">
                        <Array as="points">
                            <mxPoint x="570" y="660"/>
                            <mxPoint x="530" y="760"/>
                            <mxPoint x="540" y="800"/>
                            <mxPoint x="660" y="870"/>
                        </Array>
                    </mxGeometry>
                </mxCell>
                <mxCell id="98" value="&lt;b&gt;&lt;font style=&quot;font-size: 19px;&quot;&gt;30 MIN&lt;/font&gt;&lt;/b&gt;" style="text;html=1;align=center;verticalAlign=middle;resizable=0;points=[];autosize=1;strokeColor=none;fillColor=none;fontSize=16;fontFamily=Helvetica;fontColor=#000000;" parent="1" vertex="1">
                    <mxGeometry x="460" y="790" width="80" height="40" as="geometry"/>
                </mxCell>
                <mxCell id="99" style="edgeStyle=none;shape=connector;curved=1;rounded=1;html=1;labelBackgroundColor=default;strokeColor=#000000;strokeWidth=4;fontFamily=Helvetica;fontSize=16;fontColor=#000000;endArrow=classic;endSize=10;" parent="1" edge="1">
                    <mxGeometry relative="1" as="geometry">
                        <mxPoint x="-660" y="22.46" as="sourcePoint"/>
                        <mxPoint x="-510" y="22.46" as="targetPoint"/>
                    </mxGeometry>
                </mxCell>
                <mxCell id="100" style="edgeStyle=none;shape=connector;curved=1;rounded=1;html=1;labelBackgroundColor=default;strokeColor=#000000;strokeWidth=4;fontFamily=Helvetica;fontSize=16;fontColor=#000000;endArrow=classic;endSize=10;" parent="1" edge="1">
                    <mxGeometry relative="1" as="geometry">
                        <mxPoint x="-40.000000000000455" y="27.46" as="targetPoint"/>
                        <mxPoint x="-190.04935796206883" y="24.198593935194786" as="sourcePoint"/>
                    </mxGeometry>
                </mxCell>
                <mxCell id="101" style="edgeStyle=none;shape=connector;curved=1;rounded=1;html=1;labelBackgroundColor=default;strokeColor=#000000;strokeWidth=4;fontFamily=Helvetica;fontSize=16;fontColor=#000000;endArrow=classic;endSize=10;" parent="1" edge="1">
                    <mxGeometry relative="1" as="geometry">
                        <mxPoint x="259.99999999999955" y="22.46" as="targetPoint"/>
                        <mxPoint x="89.99999999999955" y="22.46" as="sourcePoint"/>
                    </mxGeometry>
                </mxCell>
            </root>
        </mxGraphModel>
    </diagram>
</mxfile>